<svg xmlns="http://www.w3.org/2000/svg" xmlns:xlink="http://www.w3.org/1999/xlink" class="svg-icon" viewBox="0 0 496.2 412.8"><path fill="none" stroke="#000" stroke-width="6" d="M200.9,369.9H85.8a9.9,9.9,0,1,0,0,19.8H192.4a22.35,22.35,0,0,0,21,14.7h63.2a22.35,22.35,0,0,0,21-14.7H404.3a9.9,9.9,0,0,0,0-19.8H289.2a9.86,9.86,0,0,0-9.9,9.9V382a2.65,2.65,0,0,1-2.6,2.6H213.5a2.65,2.65,0,0,1-2.6-2.6v-2.2A10,10,0,0,0,200.9,369.9Z"></path><path fill="none" stroke="#000" stroke-width="6" d="M480.3,369.9h-26V141.8a9.9,9.9,0,0,0-19.8,0v238a9.94,9.94,0,0,0,10,9.9h25.9v13.6A25.44,25.44,0,0,1,445,428.7H45.2a25.44,25.44,0,0,1-25.4-25.4V389.7H45.7a9.86,9.86,0,0,0,9.9-9.9v-238a9.9,9.9,0,0,0-19.8,0V369.9H9.9A9.86,9.86,0,0,0,0,379.8v23.5a45.28,45.28,0,0,0,45.2,45.2H445a45.28,45.28,0,0,0,45.2-45.2V379.8A9.86,9.86,0,0,0,480.3,369.9Z"></path><path fill="none" stroke="#75DAB4" stroke-width="6" d="M283.6,111.3l-57.1,56.8-19.9-20a9.9,9.9,0,0,0-14,14l26.8,27a10,10,0,0,0,7,2.9,10.19,10.19,0,0,0,7-2.9l64.2-63.8a9.9,9.9,0,0,0-14-14Z"></path><path fill="none" stroke="#000" stroke-width="6" d="M367.3,41.7H122.9A36.36,36.36,0,0,0,86.6,78V222.4a36.36,36.36,0,0,0,36.3,36.3h10.3v43.5a14.64,14.64,0,0,0,14.7,14.6,14.35,14.35,0,0,0,11-5.1l45.8-53H367.3a36.36,36.36,0,0,0,36.3-36.3V78A36.36,36.36,0,0,0,367.3,41.7Zm16.5,180.7a16.52,16.52,0,0,1-16.5,16.5H200.1a9.81,9.81,0,0,0-7.5,3.4l-39.7,45.9V248.8a9.86,9.86,0,0,0-9.9-9.9H122.8a16.52,16.52,0,0,1-16.5-16.5V78a16.52,16.52,0,0,1,16.5-16.5H367.2A16.52,16.52,0,0,1,383.7,78V222.4Z"></path></svg>