<svg xmlns="http://www.w3.org/2000/svg" xmlns:xlink="http://www.w3.org/1999/xlink" class="svg-icon" x="0px" y="0px" viewBox="0 0 512 512" xml:space="preserve">
    <path fill="none" stroke="#000" stroke-width="6" d="M257.872,78.224C178.997,77.521,114.018,139.979,111.6,218.82c-0.915,31.232,8.403,61.907,26.536,87.352 c19.174,27.432,29.296,60.17,28.952,93.636v38.568c0,2.06,0.907,4.015,2.48,5.344l25.456,21.532v26.26 c0.013,11.314,9.186,20.481,20.5,20.488h80.953c11.313-0.011,20.48-9.179,20.491-20.492v-26.26l25.456-21.532 c1.574-1.329,2.48-3.284,2.48-5.344v-38.58c0.008-33.951,10.435-67.083,29.871-94.92c45.398-65.607,29.016-155.596-36.592-200.994 C314.56,87.532,286.598,78.6,257.872,78.224z M307.408,455.024h-102.8l-20.216-17.097h143.232L307.408,455.024z M330.908,423.928 H181.092V406.8h149.816V423.928z M302.973,491.528c-0.005,3.583-2.909,6.487-6.492,6.491h-80.957 c-3.583-0.004-6.487-2.908-6.492-6.491v-22.504h93.936L302.973,491.528z M363.271,296.896 c-19.697,28.225-30.883,61.51-32.228,95.903h-150.08c-0.965-33.975-11.888-66.918-31.412-94.739 c-16.362-22.976-24.772-50.667-23.952-78.86c2.13-70.572,59.829-126.747,130.432-126.988h1.659 c72.046,0.933,129.693,60.092,128.762,132.137c-0.336,25.944-8.4,51.198-23.161,72.535L363.271,296.896z"></path>
    <path fill="none" stroke="#75DAB4" stroke-width="6" d="M332.977,222.728c-1.918-7.894-5.033-15.448-9.236-22.4l9.176-9.18c2.734-2.73,2.736-7.16,0.006-9.894 c-0.002-0.002-0.004-0.004-0.006-0.006l-16.66-16.66c-2.73-2.734-7.16-2.736-9.894-0.006c-0.002,0.002-0.005,0.004-0.007,0.006 l-9.123,9.124c-6.956-4.241-14.521-7.388-22.433-9.332v-12.876c0-3.866-3.134-7-7-7h-23.58c-3.866,0-7,3.134-7,7v12.876 c-7.918,1.942-15.491,5.089-22.452,9.332l-9.128-9.128c-2.73-2.734-7.16-2.736-9.894-0.006c-0.002,0.002-0.004,0.004-0.006,0.006 l-16.66,16.66c-2.734,2.73-2.737,7.16-0.006,9.894c0.002,0.002,0.004,0.004,0.006,0.006l9.176,9.18 c-4.204,6.951-7.318,14.505-9.236,22.4H166c-3.866,0-7,3.134-7,7v23.56c0,3.866,3.134,7,7,7l0,0h13.132 c1.943,7.847,5.073,15.35,9.28,22.252l-9.332,9.332c-2.734,2.73-2.737,7.159-0.006,9.894c0.002,0.002,0.004,0.004,0.006,0.006 l16.66,16.66c2.776,2.629,7.123,2.629,9.9,0l9.384-9.384c6.885,4.163,14.362,7.257,22.176,9.176v13.284c0,3.866,3.134,7,7,7h23.563 c3.866,0,7-3.134,7-7V318.22c7.82-1.917,15.305-5.011,22.196-9.176l9.384,9.384c2.73,2.734,7.16,2.737,9.895,0.007 c0.002-0.003,0.004-0.005,0.006-0.007l16.66-16.66c2.733-2.73,2.736-7.16,0.006-9.894c-0.002-0.002-0.004-0.004-0.006-0.006 l-9.305-9.332c4.207-6.901,7.336-14.403,9.28-22.248H346c3.866,0,7-3.134,7-7v-23.56c0-3.866-3.134-7-7-7l0,0H332.977z M339,246.288 h-11.824c-3.42-0.002-6.341,2.47-6.904,5.844c-1.662,9.815-5.55,19.119-11.363,27.2c-2.023,2.791-1.713,6.639,0.732,9.068 l8.432,8.399l-6.76,6.761l-8.461-8.465c-2.419-2.421-6.234-2.737-9.02-0.748c-8.093,5.77-17.396,9.613-27.2,11.24 c-3.376,0.57-5.845,3.5-5.832,6.924v12h-9.6v-12c0.005-3.423-2.467-6.348-5.844-6.912c-9.804-1.627-19.107-5.471-27.2-11.24 c-2.786-1.988-6.601-1.672-9.021,0.748l-8.46,8.465l-6.76-6.76l8.444-8.412c2.431-2.427,2.741-6.259,0.732-9.045 c-5.813-8.08-9.701-17.385-11.364-27.199c-0.563-3.374-3.483-5.846-6.904-5.844H173v-9.56h11.748 c3.436,0.001,6.364-2.492,6.912-5.884c1.61-9.867,5.467-19.232,11.272-27.372c1.989-2.785,1.673-6.601-0.748-9.02l-8.256-8.256 l6.76-6.76l8.224,8.224c2.427,2.429,6.258,2.739,9.044,0.732c8.133-5.855,17.509-9.754,27.396-11.392 c3.386-0.565,5.863-3.502,5.848-6.936v-11.6h9.6v11.6c0,3.429,2.484,6.354,5.868,6.908c9.881,1.645,19.25,5.547,27.376,11.404 c2.785,2.011,6.618,1.701,9.044-0.732l8.225-8.224l6.76,6.76l-8.256,8.256c-2.422,2.419-2.738,6.235-0.748,9.02 c5.805,8.14,9.661,17.505,11.271,27.372c0.548,3.392,3.477,5.885,6.912,5.884H339V246.288z"></path>
    <path fill="none" stroke="#000" stroke-width="6" d="M256,192.1c-27.172,0-49.2,22.027-49.2,49.2c0,27.173,22.028,49.2,49.2,49.2c27.172,0,49.2-22.027,49.2-49.2 C305.162,214.143,283.156,192.138,256,192.1z M256,276.523c-19.44,0-35.2-15.759-35.2-35.199s15.76-35.2,35.2-35.2 s35.2,15.76,35.2,35.2c-0.026,19.43-15.771,35.176-35.2,35.203V276.523z"></path>
    <path fill="none" stroke="#000" stroke-width="6" d="M256,54.332c3.866,0,7-3.134,7-7V7c0-3.866-3.134-7-7-7s-7,3.134-7,7v40.332 C249,51.198,252.134,54.332,256,54.332z"></path>
    <path fill="none" stroke="#000" stroke-width="6" d="M427.12,74.98L398.6,103.5c-2.733,2.734-2.733,7.166,0,9.9c2.734,2.734,7.167,2.734,9.9,0l28.52-28.52 c2.734-2.734,2.734-7.166,0-9.9C434.286,72.246,429.854,72.246,427.12,74.98L427.12,74.98z"></path>
    <path fill="none" stroke="#000" stroke-width="6" d="M505,249h-40.332c-3.866,0-7,3.134-7,7s3.134,7,7,7l0,0H505c3.866,0,7-3.134,7-7S508.866,249,505,249z"></path>
    <path fill="none" stroke="#000" stroke-width="6" d="M47.332,249H7c-3.866,0-7,3.134-7,7s3.134,7,7,7h40.332c3.866,0,7-3.134,7-7S51.198,249,47.332,249z"></path>
    <path fill="none" stroke="#000" stroke-width="6" d="M113.4,103.5L84.88,74.98c-2.734-2.734-7.166-2.734-9.9,0s-2.734,7.166,0,9.9l28.52,28.52 c2.734,2.734,7.166,2.734,9.9,0S116.134,106.234,113.4,103.5z"></path>
</svg>